<?xml version="1.0" encoding="utf-8"?>
<!-- Generator: Adobe Illustrator 25.4.1, SVG Export Plug-In . SVG Version: 6.00 Build 0)  -->
<svg version="1.1" id="Capa_1" xmlns="http://www.w3.org/2000/svg" xmlns:xlink="http://www.w3.org/1999/xlink" x="0px" y="0px"
	 viewBox="0 0 44.7 44.7" style="enable-background:new 0 0 44.7 44.7;" xml:space="preserve">
<style type="text/css">
	.st0{fill:#1C355E;}
</style>
<path class="st0" d="M44.7,2.2c0,13.4,0,26.9,0,40.3c-0.6,1.2-1.4,2.2-2.9,2.2c-3.3,0-6.6,0-9.9,0c-0.7,0-0.9-0.2-0.9-0.9
	c0-5.1,0-10.1,0-15.2c0-0.8,0.3-1,1-0.9c1.3,0,2.6,0,3.9,0c0.7,0,1-0.3,1-1c0.2-1.7,0.4-3.4,0.7-5.1c0.1-0.9-0.1-1.1-1-1.1
	c-1.6,0-3.2,0-4.9,0c-0.5,0-0.8-0.1-0.8-0.7c0-1.4,0-2.8,0.1-4.2c0.1-1.6,0.9-2.2,2.4-2.2c1.2-0.1,2.3,0,3.5,0
	c0.6,0,0.9-0.2,0.9-0.9c0-1.6,0-3.2,0-4.8c0-0.6-0.2-0.9-0.8-0.9c-1.7,0-3.3-0.2-5-0.2c-4.3,0-7.4,2.5-8.1,6.7c-0.3,2-0.3,4-0.3,6
	c0,0.9-0.3,1.1-1.1,1.1c-1.3-0.1-2.5,0-3.8,0c-0.6,0-0.9,0.3-0.9,0.9c0,1.8,0,3.5,0,5.3c0,0.7,0.3,1,1,1c1.2,0,2.5,0,3.7,0
	c0.9,0,1.2,0.3,1.2,1.2c0,4.9,0,9.8,0,14.7c0,0.9-0.3,1.2-1.2,1.2c-6.4,0-12.7,0-19.1,0C1,44.7,0,43.7,0,41.3C0,28.9,0.1,16.4,0,4
	c0-1.8,0.3-3.2,2.2-4C15.6,0,29,0,42.5,0C43.5,0.4,44.3,1.2,44.7,2.2z"/>
</svg>
