<?xml version="1.0" encoding="utf-8"?>
<!-- Generator: Adobe Illustrator 25.4.1, SVG Export Plug-In . SVG Version: 6.00 Build 0)  -->
<svg version="1.1" id="Capa_1" xmlns="http://www.w3.org/2000/svg" xmlns:xlink="http://www.w3.org/1999/xlink" x="0px" y="0px"
	 viewBox="0 0 394.4 200" style="enable-background:new 0 0 394.4 200;" xml:space="preserve">
<style type="text/css">
	.st0{fill:#FFFFFF;}
</style>
<path id="logo_x5F_white" class="st0" d="M135.4,41.8v66.2c0,5.1,5.9,11.6,5.9,11.6v2.2h-30.2v-2.2c0,0,5.9-6.5,5.9-11.6
	c0-0.7,0.1-1.3,0.3-1.9V43.7c-0.2-0.5-0.3-1.1-0.3-1.9c0-5.1-5.9-11.6-5.9-11.6V28h30.2v2.2C141.3,30.2,135.4,36.7,135.4,41.8z
	 M213.1,101.9c0,0-7.2,12.2-12.5,12.2h-15.1V41.8c0-5.1,5.9-11.6,5.9-11.6V28h-30.2v2.2c0,0,5.9,6.5,5.9,11.6c0,0.7,0.1,1.3,0.3,1.9
	v62.5c-0.2,0.5-0.3,1.1-0.3,1.9c0,5.1-5.9,11.6-5.9,11.6v2.2h50.1l3.5-20H213.1z M301.4,101.9c0,0-7.2,12.2-12.5,12.2h-31V79.4h19.5
	c4.9,1.6,8.3,9,8.3,9h1.9V61.9h-1.9c0,0-4.3,9.3-10.2,9.3h-17.6V35.8h29.6C295,37.5,299.6,49,299.6,49h1.4l-2.8-21l0,0v0h-64.8v1.7
	c0,0,6.4,5.6,6.4,13.4v63.7c0,7.7-6.4,13.4-6.4,13.4v1.7h66.2l3.5-20H301.4z M362.3,69.5c1.8-2.7,3.4-5.3,4.9-7.5
	c12.5-19.1,23.5-31.9,23.5-31.9V28h-1h-10.1l-21.9,34.3L335.7,28h-22.6h-1v2.1c0,0,11,12.9,23.5,31.9c3.1,4.7,7,10.8,11.1,17.3
	l-25.9,40.6v2.1h8.6c0,0,10.9-17.7,21.9-35.3c11,17.5,21.9,35.3,21.9,35.3h21.1v-2.1L362.3,69.5z M93.6,14.1L93.6,14.1L93.6,14.1
	H2.9v0l0,0L0,36.1h1.5c0,0,4.8-12,12.6-13.7h24.7v83.1c-0.2,0.5-0.3,1.2-0.3,1.9c0,5.3-6.2,12.1-6.2,12.1v2.3h31.6v-2.3
	c0,0-6.2-6.8-6.2-12.1V22.3h24.6C90.2,24,95,36.1,95,36.1h1.5L93.6,14.1z M137.4,133.2l5.5,25.1h9.8l3-14.8l3.1,14.8h9.9l5.5-25.1
	h-7.9l-2.8,17.7l-4.3-17.7h-7.4l-3.9,17.7l-3-17.7H137.4z M190.7,158.3v-25.1h-6.9v25.1H190.7z M220.9,133.2h-20.6v5.8h6.8v19.2h7
	v-19.2h6.8V133.2z M231,158.3h6.9v-10h8.9v10h6.9v-25.1h-6.9v9.7H238v-9.7H231V158.3z M35,199.6h9v-4.9c0-3.3-0.1-7.3-0.2-13.2
	l8.5,12.5h4.5l8.5-12.4c-0.2,4.6-0.3,9.1-0.3,13.2v4.9h9v-30.6h-9.6l-9.8,15l-9.8-15H35V199.6z M78.9,184.2
	c0,9.5,6.9,15.8,17.4,15.8s17.4-6.3,17.4-15.8c0-9.5-7-15.7-17.4-15.7S78.9,174.8,78.9,184.2z M88.5,184.2c0-5.1,3.1-8.4,7.8-8.4
	c4.8,0,7.9,3.3,7.9,8.4c0,5.1-3.1,8.4-7.9,8.4C91.5,192.6,88.5,189.4,88.5,184.2z M118.3,188.2c0,7.5,5.7,11.8,14.2,11.8
	c9.1,0,14.2-4.7,14.2-11.8v-19.3h-9v19c0,2.8-1.8,4.6-5.2,4.6c-3.1,0-5.2-1.6-5.2-4.6v-19h-9.1V188.2z M178.1,168.9h-26.8v7.1h8.9
	v23.5h9.1v-23.5h8.9V168.9z M183.1,199.6h9v-12.3h11.6v12.3h9v-30.6h-9v11.8h-11.6v-11.8h-9V199.6z M216.8,168.9l7.1,30.6h12.8
	l3.9-18.1l4.1,18.1h12.9l7.1-30.6h-10.3l-3.6,21.7l-5.6-21.7h-9.6l-5.1,21.6l-3.8-21.6H216.8z M289.4,199.6h10.5l-12.5-30.6h-11.2
	l-11.8,30.6h10.2l1.5-4.4h11.9L289.4,199.6z M278.1,188.7l3.8-11.4l3.8,11.4H278.1z M315.7,200c8.2,0,13.7-4,13.7-10.1
	c0-4.6-2.9-8.2-9.4-9.3l-4.8-0.8c-1.8-0.3-3.7-0.5-3.7-2.3c0-1.4,1.3-2.3,3.6-2.3c2.6,0,4.3,1.1,4.3,2.8h9.3
	c-0.1-5.7-5.4-9.5-13.1-9.5c-8.2,0-13.6,4-13.6,10.1c0,4.6,3.1,7.8,10,8.9l4.8,0.8c1.2,0.2,3.1,0.5,3.1,2.3c0,1.5-1.3,2.5-3.9,2.5
	c-2.7,0-4.6-1-4.7-2.7h-9.3C302.4,196.2,307.6,200,315.7,200z M334.4,199.6h9v-12.3H355v12.3h9v-30.6h-9v11.8h-11.6v-11.8h-9V199.6z
	 M163.5,17.4h5.7c4.1,0,6.1-2,6.1-4.9c0-2.5-1.6-4-3.4-4.4c1.2-0.5,2.3-1.8,2.3-3.7c0-2.3-1.6-4.4-4.8-4.4h-5.9
	c-0.2,0-0.4,0.1-0.4,0.4V17C163.1,17.2,163.3,17.4,163.5,17.4z M166.6,6.9V3.1h2c1.3,0,2.1,0.5,2.1,1.8c0,1.4-0.8,2-2.1,2H166.6z
	 M166.6,14.3V9.7h2.3c1.7,0,2.8,0.7,2.8,2.3s-1,2.3-2.8,2.3H166.6z M183.7,17.4h8.8c0.2,0,0.4-0.1,0.4-0.4v-2.4
	c0-0.2-0.1-0.4-0.4-0.4h-5.7v-4.1h5.3c0.2,0,0.4-0.1,0.4-0.4V7.4c0-0.2-0.1-0.4-0.4-0.4h-5.3V3.2h5.7c0.2,0,0.4-0.1,0.4-0.4V0.4
	c0-0.2-0.1-0.4-0.4-0.4h-8.8c-0.2,0-0.4,0.1-0.4,0.4V17C183.3,17.2,183.4,17.4,183.7,17.4z M201.9,17.4h8.8c0.2,0,0.4-0.1,0.4-0.4
	v-2.4c0-0.2-0.1-0.4-0.4-0.4h-5.7v-4.1h5.3c0.2,0,0.4-0.1,0.4-0.4V7.4c0-0.2-0.1-0.4-0.4-0.4h-5.3V3.2h5.7c0.2,0,0.4-0.1,0.4-0.4
	V0.4c0-0.2-0.1-0.4-0.4-0.4h-8.8c-0.2,0-0.4,0.1-0.4,0.4V17C201.6,17.2,201.7,17.4,201.9,17.4z M228.8,17.4h3c0.3,0,0.4-0.2,0.2-0.4
	l-3.9-6c2.3-0.8,3.5-2.7,3.5-5.3c0-3.3-2-5.6-6.1-5.6h-5.2c-0.2,0-0.4,0.1-0.4,0.4V17c0,0.2,0.1,0.4,0.4,0.4h2.8
	c0.2,0,0.4-0.1,0.4-0.4v-5.7h1.3l3.7,5.8C228.4,17.3,228.6,17.4,228.8,17.4z M223.4,8.2v-5h1.9c1.5,0,2.8,0.5,2.8,2.5
	c0,2-1.3,2.5-2.8,2.5H223.4z"/>
</svg>
