<?xml version="1.0" encoding="utf-8"?>
<!-- Generator: Adobe Illustrator 25.4.1, SVG Export Plug-In . SVG Version: 6.00 Build 0)  -->
<svg version="1.1" id="Capa_1" xmlns="http://www.w3.org/2000/svg" xmlns:xlink="http://www.w3.org/1999/xlink" x="0px" y="0px"
	 viewBox="0 0 39.9 44.7" style="enable-background:new 0 0 39.9 44.7;" xml:space="preserve">
<style type="text/css">
	.st0{fill:#1C355E;}
</style>
<path class="st0" d="M19.5,0c3.2,0,6.3,0,9.5,0c0.1,1,0,2.1,0.2,3.1c0.7,4,4.4,7.2,8.5,7.4c0.8,0,1.5,0.1,2.3,0.1c0,3.1,0,6.2,0,9.3
	c-3.9,0.3-7.5-0.5-11-2.4c0,0.2,0,0.3,0,0.5c0,4.1,0,8.1,0,12.2c0,2.3-0.4,4.4-1.5,6.4c-3,6.1-9.8,9.3-16.4,7.7
	c-5.6-1.4-9.2-5-10.7-10.6c-0.2-0.8-0.3-1.6-0.4-2.4c0-0.6,0-1.3,0-1.9c0-0.1,0.1-0.2,0.1-0.4c0.3-3.2,1.5-5.9,3.6-8.2
	c2.9-3.1,6.5-4.7,10.8-4.8c1.1,0,2.2,0.2,3.3,0.3c0,3.4,0,6.7,0,10c-0.5-0.2-1-0.3-1.5-0.5c-0.9-0.3-1.8-0.4-2.7-0.2
	c-2.6,0.5-4.4,3.1-3.9,5.8c0.6,2.7,3.3,4.4,5.9,3.8c2.3-0.6,3.8-2.5,3.8-4.9c0-2.2,0-4.5,0-6.8C19.4,15.6,19.4,7.8,19.5,0z
	 M15.1,18.7c-1.2-0.1-2.4,0-3.6,0.3c-6.1,1.4-10.1,7.7-8.7,13.8c1.7,7.6,10.2,11.6,17.2,7.8c4.1-2.2,6.2-5.7,6.2-10.4
	c0-5.8,0-11.5,0-17.3c0-0.2,0-0.3,0-0.6c1.7,1.3,3.3,2.6,5.1,3.5c1.9,0.8,3.8,1.4,5.9,1.5c0-1.4,0-2.8,0-4.1c-6.2-1-9.8-4.5-11-10.5
	c-1.4,0-2.8,0-4.2,0c0,0.2,0,0.4,0,0.5c0,8.9,0,17.9,0,26.9c0,0.5,0,1-0.1,1.6c-0.8,4.3-4.8,7-9.1,6.1C9.6,37,7.1,33.9,7,30.6
	c-0.1-3.8,2.6-6.9,5.8-7.6c0.8-0.2,1.6-0.2,2.4-0.3C15.1,21.4,15.1,20.1,15.1,18.7z"/>
</svg>
